<svg width="16" height="16" viewBox="0 0 16 16" fill="none" xmlns="http://www.w3.org/2000/svg">
<path d="M13.8932 13.558L10.0002 6.006V2.006H11.0002V1.006H9.99418V1L9.53818 1.005H5.00018V2H6.00018V5.952L2.10618 13.561C2.03048 13.7133 1.99489 13.8825 2.00279 14.0524C2.01068 14.2224 2.0618 14.3875 2.15131 14.5321C2.24081 14.6768 2.36574 14.7962 2.51428 14.8792C2.66282 14.9621 2.83006 15.0057 3.00018 15.006H13.0002C13.1706 15.0058 13.3382 14.9621 13.487 14.8789C13.6358 14.7958 13.7608 14.676 13.8503 14.5309C13.9398 14.3858 13.9907 14.2203 13.9982 14.05C14.0057 13.8798 13.9695 13.7104 13.8932 13.558ZM6.89318 6.408L7.00018 6.193V2.036L9.00018 2.012V6.007V6.249L9.11118 6.464L10.9372 10.006H5.04918L6.89318 6.408ZM3.00018 14.017L4.54118 11.006H11.4562L13.0032 14.006L3.00018 14.017Z" fill="#424242"/>
</svg>
