<?xml version="1.0" encoding="UTF-8" standalone="no"?>
<svg
   width="16"
   height="16"
   viewBox="0 0 16 16"
   fill="none"
   version="1.1"
   id="svg6"
   xmlns="http://www.w3.org/2000/svg"
   xmlns:svg="http://www.w3.org/2000/svg">
  <defs
     id="defs6" />
  <path
     d="M 8.7838869,6.8609684 C 9.6474903,4.9049986 10.047729,2.9834748 9.525564,0.47424053 l -1.3820032,0.003051 C 8.6195052,3.1272315 8.463203,4.5356435 7.4367051,6.2685238 M 6.177714,6.9165686 2.6339819,10.20566 7.6993915,12.911118 9.0444494,8.2279098 M 4.204374,10.037304 6.211188,8.158829 7.865015,8.8522664 7.0193076,11.44081 Z"
     fill="#424242"
     id="path1"
     style="display:inline" />
  <path
     d="M 14.074166,9.8650476 V 8.8650472 l -0.5,-0.5 h -1 l -0.5,0.5 v 1.0000004 l 0.5,0.5000004 h 1 z"
     fill="#424242"
     id="path3"
     style="display:inline" />
  <path
     d="m 11.718349,11.276745 v 1 l -0.5,0.5 h -1 l -0.5000001,-0.5 v -1 l 0.5000001,-0.5 h 1 z"
     fill="#424242"
     id="path4"
     style="display:inline" />
  <path
     d="m 15.084734,11.978399 v 1 l -0.5,0.5 h -1 l -0.5,-0.5 v -1 l 0.5,-0.5 h 1 z"
     fill="#424242"
     id="path6"
     style="display:inline" />
  <path
     fill-rule="evenodd"
     clip-rule="evenodd"
     d="m 6.1906963,0.99147757 -4.7564677,0.009744 -0.50000005,0.5 V 14.501222 l 0.50000005,0.5 H 13.434885 l -1,-1 H 1.9342266 V 2.0012216 l 3.7600487,-0.00974"
     fill="#424242"
     id="path7" />
</svg>
