<svg width="24" height="24" viewBox="0 0 24 24" fill="none" xmlns="http://www.w3.org/2000/svg">
<g clip-path="url(#clip0)">
<path d="M3.46303 12.86L3.45839 12.79C3.45989 12.8134 3.46143 12.8367 3.46303 12.86Z" fill="#424242"/>
<path d="M10.7277 13.5509L7.69328 10.501L8.70748 9.4868L11.9162 12.7117L15.0792 9.54875L16.0934 10.5629L13.0591 13.5972L16.0936 16.647L15.0794 17.6612L11.8707 14.4362L8.70773 17.5993L7.69353 16.5851L10.7277 13.5509Z" fill="#424242"/>
<path fill-rule="evenodd" clip-rule="evenodd" d="M16.9331 5.00286V6H18.2786L21.1207 3.15788L22.1349 4.17207L19.4438 6.86321L19.4763 6.94805C20.0426 8.42597 20.3617 10.094 20.3617 11.86C20.3617 12.1955 20.3502 12.5274 20.3276 12.8552L20.3225 12.93H23.8631V14.3643H20.1423L20.1318 14.4217C19.8294 16.075 19.2411 17.5825 18.44 18.851L18.3804 18.9454L21.8029 22.3852L20.7862 23.3968L17.5122 20.1063L17.4133 20.2169C15.9343 21.8712 14.0179 22.8629 11.9303 22.8629C9.81026 22.8629 7.86677 21.8402 6.37866 20.1395L6.28012 20.0268L3.0715 23.2355L2.05731 22.2213L5.42282 18.8558L5.36455 18.7615C4.59197 17.5118 4.02398 16.0363 3.72871 14.4217L3.71821 14.3643H0.000244141V12.93H3.53801L3.53287 12.8552C3.51034 12.5274 3.49882 12.1955 3.49882 11.86C3.49882 10.117 3.8096 8.46951 4.36218 7.00599L4.39402 6.92168L1.63253 4.14621L2.64928 3.13457L5.50028 6H6.9274V5.00286C6.9274 2.23986 9.16725 0 11.9303 0C14.6933 0 16.9331 2.23986 16.9331 5.00286ZM8.36168 5.00286V6H15.4988V5.00286C15.4988 3.03199 13.9011 1.43429 11.9303 1.43429C9.95938 1.43429 8.36168 3.03199 8.36168 5.00286ZM18.1611 7.52498L18.127 7.43429H5.73353L5.6994 7.52498C5.21355 8.81605 4.93311 10.2859 4.93311 11.86C4.93311 14.6199 5.79535 17.061 7.11715 18.7793C8.43779 20.4962 10.1531 21.4286 11.9303 21.4286C13.7074 21.4286 15.4227 20.4962 16.7433 18.7793C18.0652 17.061 18.9274 14.6199 18.9274 11.86C18.9274 10.2859 18.6469 8.81605 18.1611 7.52498Z" fill="#424242"/>
</g>
<defs>
<clipPath id="clip0">
<rect width="24" height="24" fill="white" transform="translate(0.000244141)"/>
</clipPath>
</defs>
</svg>
