<svg viewBox="0 0 36 36" xmlns="http://www.w3.org/2000/svg">
  <path d="M 31.901 32.007 L 18.212 32.007 L 20.712 29.507 L 27.855 29.507 L 25.474 24.745 L 26.751 23.469 L 27.243 22.977 L 27.429 23.062 Z M -0.416 32.007 L 15.743 -0.309 L 25.237 18.679 C 25.22 18.847 25.212 19.021 25.212 19.2 C 25.212 19.939 25.347 20.533 25.667 21.157 L 25.991 21.791 L 24.662 23.12 L 15.743 5.281 L 3.63 29.507 L 18.274 29.507 L 15.773 32.007 Z" style="fill: rgb(178, 178, 178);"/>
  <path d="M 1.506 29.913 L 16.834 16.288 L 17.83 17.41 L 2.502 31.035 Z" style="fill: rgb(178, 178, 178);"/>
  <path d="M 16.751 2.834 L 18.895 25.326 L 16.905 25.516 L 14.761 3.024 Z" style="fill: rgb(178, 178, 178);"/>
  <path d="M 29.178 31.061 L 22.032 28.192 L 23.57 26.654 L 29.924 29.205 Z M 10.374 23.511 L 11.12 21.655 L 21.83 25.955 L 20.292 27.493 Z" style="fill: rgb(178, 178, 178);"/>
  <path d="M 13.82 32.546 L 24.769 21.598 C 24.413 20.873 24.212 20.059 24.212 19.2 C 24.212 16.194 26.649 13.757 29.655 13.757 C 30.557 13.757 31.41 13.978 32.161 14.368 C 32.123 14.399 32.084 14.431 32.048 14.467 L 28.622 17.893 C 28.17 18.347 28.17 19.081 28.622 19.534 L 29.319 20.23 C 29.772 20.683 30.506 20.683 30.958 20.23 L 34.385 16.804 C 34.421 16.767 34.454 16.73 34.484 16.692 C 34.875 17.441 35.094 18.295 35.094 19.2 C 35.094 22.203 32.659 24.639 29.655 24.639 C 28.872 24.639 28.131 24.473 27.458 24.176 L 16.453 35.18 C 15.955 35.679 15.145 35.679 14.646 35.18 L 13.82 34.352 C 13.321 33.852 13.321 33.044 13.82 32.546 Z" style="stroke-width: 2px; stroke: rgb(178, 178, 178); fill: none;"/>
</svg>